<?xml version="1.0" encoding="UTF-8" standalone="no"?>
<svg
   width="80"
   height="71"
   viewBox="0 0 80 71"
   fill="none"
   version="1.1"
   id="svg29"
   xmlns="http://www.w3.org/2000/svg"
   xmlns:svg="http://www.w3.org/2000/svg">
  <g
     clip-path="url(#clip0_1502_499)"
     id="g22">
    <path
       d="M78.8474 0.00225243L10.3975 2.33887L11.5481 35.8806L79.998 33.544L78.8474 0.00225243Z"
       fill="white"
       id="path2" />
    <path
       d="M35.0314 17.2828C35.1959 22.0766 31.9198 25.5764 27.0113 25.7441L20.638 25.9619L20.074 9.52938L26.4473 9.31161C31.3044 9.14575 34.866 12.4633 35.0314 17.2828ZM31.5106 17.4031C31.4032 14.2756 29.3266 12.242 26.2427 12.3473L23.5187 12.4403L23.875 22.8227L26.599 22.7297C29.7344 22.6226 31.6162 20.4794 31.5106 17.4031Z"
       fill="#672E91"
       id="path4"
       style="fill:#000001;fill-opacity:1" />
    <path
       d="M47.9421 13.5312L48.3364 25.016L45.6893 25.1064L45.4371 23.7547C44.6543 24.9365 43.3878 25.5186 41.8973 25.5696C39.1218 25.6645 37.5431 23.8961 37.4499 21.1788L37.2 13.8983L40.4123 13.7885L40.6446 20.5563C40.7035 22.2738 41.571 22.8089 42.8559 22.765C44.2437 22.7176 45.0327 21.7153 44.9825 20.2541L44.7554 13.6401L47.9421 13.5312Z"
       fill="#672E91"
       id="path6"
       style="fill:#000001;fill-opacity:1" />
    <path
       d="M56.3118 12.8604C59.5498 12.7498 61.9261 14.5166 62.3074 17.3781L59.0436 17.4895C58.6921 16.2439 57.6422 15.6382 56.3571 15.682C54.6611 15.7399 53.5476 17.0355 53.6181 19.0864C53.685 21.0347 54.8102 22.3309 56.5833 22.2703C57.971 22.2229 58.946 21.3939 59.1395 20.2838L62.4033 20.1723C62.1917 23.0027 59.9173 24.954 56.7306 25.0629C53.0556 25.1884 50.4793 22.8381 50.3534 19.1723C50.2267 15.4808 52.6369 12.9858 56.3118 12.8604Z"
       fill="#672E91"
       id="path8"
       style="fill:#000001;fill-opacity:1" />
    <path
       d="M71.0348 15.36L68.8503 15.4346L69.1548 24.3046L65.9682 24.4134L65.6637 15.5435L63.5051 15.6172L63.4153 13.0024L65.5739 12.9286L65.471 9.9292L68.6576 9.82031L68.7605 12.8197L70.945 12.7451L71.0348 15.36Z"
       fill="#672E91"
       id="path10"
       style="fill:#000001;fill-opacity:1" />
    <path
       d="M76.8813 38.1683L6.99634 23.3506L0.00157011 56.1775L69.8865 70.9952L76.8813 38.1683Z"
       fill="white"
       id="path12" />
    <path
       d="M25.6377 38.0793L20.7834 37.05L17.9871 50.172L14.7173 49.4786L17.5136 36.3566L12.634 35.3219L13.265 32.3613L26.2685 35.1187L25.6377 38.0793Z"
       fill="#672E91"
       id="path14"
       style="fill:#000001;fill-opacity:1" />
    <path
       d="M36.6557 42.3827L34.2605 53.623L31.2674 52.9883L31.5721 51.5582C30.593 52.452 28.9593 52.8398 27.2491 52.4772C24.105 51.8105 22.4141 49.0131 23.1679 45.4754C23.9485 41.8123 26.7506 39.8889 30.0706 40.5929C31.7558 40.9503 32.9659 41.81 33.5408 43.0595L34.065 41.8332L36.6557 42.3827ZM32.3247 47.286C32.731 45.3792 31.7911 43.8687 30.0304 43.4954C28.2196 43.1114 26.7845 44.1707 26.3889 46.0274C25.9879 47.9092 26.8974 49.4394 28.658 49.8127C30.4439 50.1914 31.9185 49.1929 32.3247 47.286Z"
       fill="#672E91"
       id="path16"
       style="fill:#000001;fill-opacity:1" />
    <path
       d="M50.547 51.1757C49.7878 54.7385 46.9606 56.6564 43.716 55.9684C42.1566 55.6378 40.9861 54.8388 40.3935 53.7955L39.0461 60.1182L35.9272 59.4568L39.4399 42.9727L42.0306 43.5219L41.9217 45.0198C42.9169 44.0508 44.5506 43.6629 46.2861 44.031C49.5054 44.7137 51.3116 47.5879 50.547 51.1757ZM47.3527 50.4984C47.7537 48.6166 46.8442 47.0864 45.0835 46.7131C43.2977 46.3344 41.8231 47.3329 41.4114 49.2649C41.0051 51.1717 41.9504 52.6571 43.711 53.0305C45.497 53.4091 46.9517 52.3802 47.3527 50.4984Z"
       fill="#672E91"
       id="path18"
       style="fill:#000001;fill-opacity:1" />
    <path
       d="M56.8555 58.7544C53.2838 57.9971 51.4381 55.062 52.1974 51.4993C52.9726 47.8613 55.9041 46.0703 59.3248 46.7956C62.6952 47.5102 64.4525 50.2431 63.7842 53.3792C63.6452 54.0315 63.4682 54.4922 63.3484 54.8078L55.0985 53.0585C54.8479 54.605 55.7353 55.8684 57.3954 56.2204C58.6026 56.4763 59.6707 56.1521 60.1992 55.3988L63.2426 56.0441C62.2425 58.2709 59.6725 59.3517 56.8555 58.7544ZM60.7236 52.0747C60.9675 50.684 60.1127 49.6374 58.6789 49.3334C57.1949 49.0187 55.9316 49.6425 55.5674 50.9813L60.7236 52.0747Z"
       fill="#672E91"
       id="path20"
       style="fill:#000001;fill-opacity:1" />
  </g>
  <defs
     id="defs27">
    <clipPath
       id="clip0_1502_499">
      <rect
         width="80"
         height="71"
         fill="white"
         id="rect24" />
    </clipPath>
  </defs>
</svg>
