<?xml version="1.0" encoding="UTF-8" standalone="no"?>
<svg
   width="20"
   height="15"
   viewBox="0 0 20 15"
   fill="none"
   version="1.1"
   id="svg4"
   xmlns="http://www.w3.org/2000/svg"
   xmlns:svg="http://www.w3.org/2000/svg">
  <defs
     id="defs8" />
  <path
     d="M19.4189 2.63631C19.3058 2.21251 19.0844 1.8261 18.7766 1.51578C18.4689 1.20545 18.0857 0.98211 17.6654 0.86811C16.1187 0.450196 9.91667 0.450195 9.91667 0.450195C9.91667 0.450195 3.71461 0.450196 2.16791 0.86811C1.74764 0.982111 1.36445 1.20546 1.05671 1.51578C0.748974 1.8261 0.527487 2.21251 0.414433 2.63631C1.16771e-07 4.19601 0 7.45019 0 7.45019C0 7.45019 1.16771e-07 10.7044 0.414433 12.2641C0.527485 12.6879 0.748971 13.0743 1.05671 13.3846C1.36445 13.6949 1.74764 13.9183 2.16791 14.0323C3.71461 14.4502 9.91667 14.4502 9.91667 14.4502C9.91667 14.4502 16.1187 14.4502 17.6654 14.0323C18.0857 13.9183 18.4689 13.6949 18.7766 13.3846C19.0844 13.0743 19.3059 12.6879 19.4189 12.2641C19.8333 10.7044 19.8333 7.45019 19.8333 7.45019C19.8333 7.45019 19.8333 4.19601 19.4189 2.63631ZM7.93334 10.4502V4.45019L13.086 7.45028L7.93334 10.4502Z"
     fill="#00FFE0"
     id="path2"
     style="fill:#fbfbfb;fill-opacity:1" />
</svg>
